<?xml version="1.0" encoding="utf-8"?>
<!-- Generator: Adobe Illustrator 16.0.0, SVG Export Plug-In . SVG Version: 6.00 Build 0)  -->
<!DOCTYPE svg PUBLIC "-//W3C//DTD SVG 1.1//EN" "http://www.w3.org/Graphics/SVG/1.1/DTD/svg11.dtd">
<svg version="1.1" id="Capa_1" xmlns="http://www.w3.org/2000/svg" xmlns:xlink="http://www.w3.org/1999/xlink" x="0px" y="0px"
	 width="48px" height="48px" viewBox="0 0 48 48" enable-background="new 0 0 48 48" xml:space="preserve">
<path fill="#2FABCC" d="M24,44c-2.767,0-5.367-0.525-7.8-1.575c-2.434-1.05-4.55-2.475-6.35-4.274
	c-1.8-1.801-3.225-3.916-4.275-6.351C4.525,29.367,4,26.768,4,24c0-2.767,0.525-5.367,1.575-7.8c1.05-2.434,2.475-4.55,4.275-6.35
	c1.8-1.8,3.917-3.225,6.35-4.275C18.633,4.525,21.233,4,24,4c2.768,0,5.367,0.525,7.8,1.575c2.435,1.05,4.55,2.475,6.351,4.275
	c1.802,1.8,3.227,3.917,4.274,6.35C43.475,18.633,44,21.233,44,24c0,2.768-0.525,5.367-1.575,7.8
	c-1.05,2.435-2.475,4.55-4.274,6.351c-1.801,1.802-3.916,3.227-6.351,4.274C29.367,43.475,26.768,44,24,44z M21.85,40.95V36.85
	c-1.167,0-2.15-0.434-2.95-1.3c-0.8-0.866-1.2-1.884-1.2-3.05v-2.2L7.45,20.05c-0.167,0.667-0.284,1.325-0.35,1.975
	C7.033,22.675,7,23.333,7,24c0,4.334,1.408,8.117,4.225,11.35C14.042,38.584,17.583,40.45,21.85,40.95z M36.55,35.55
	c0.733-0.8,1.375-1.649,1.925-2.55c0.551-0.9,1.02-1.842,1.4-2.825s0.666-1.991,0.85-3.024C40.909,26.118,41,25.066,41,24
	c0-3.533-0.967-6.742-2.9-9.625c-1.933-2.883-4.516-4.992-7.75-6.325v0.9c0,1.167-0.397,2.183-1.199,3.05
	c-0.801,0.867-1.781,1.3-2.948,1.3h-4.35v4.35c0,0.567-0.225,1.033-0.675,1.4c-0.45,0.367-0.958,0.55-1.525,0.55H15.5V24h12.9
	c0.564,0,1.033,0.217,1.397,0.65c0.366,0.433,0.552,0.934,0.552,1.5v6.35h2.148c0.967,0,1.814,0.283,2.55,0.85
	C35.783,33.917,36.283,34.65,36.55,35.55z"/>
</svg>
