<?xml version="1.0" encoding="utf-8"?>
<!-- Generator: Adobe Illustrator 16.0.0, SVG Export Plug-In . SVG Version: 6.00 Build 0)  -->
<!DOCTYPE svg PUBLIC "-//W3C//DTD SVG 1.1//EN" "http://www.w3.org/Graphics/SVG/1.1/DTD/svg11.dtd">
<svg version="1.1" id="Capa_1" xmlns="http://www.w3.org/2000/svg" xmlns:xlink="http://www.w3.org/1999/xlink" x="0px" y="0px"
	 width="48px" height="48px" viewBox="0 0 48 48" enable-background="new 0 0 48 48" xml:space="preserve">
<path fill="#2FABCC" d="M24,41.95L21.95,40.1c-3.534-3.231-6.45-6.023-8.75-8.375c-2.3-2.35-4.133-4.449-5.5-6.3
	C6.333,23.575,5.375,21.9,4.825,20.4C4.275,18.9,4,17.383,4,15.85c0-3,1.008-5.508,3.025-7.525C9.042,6.308,11.533,5.3,14.5,5.3
	c1.9,0,3.658,0.45,5.275,1.35c1.617,0.9,3.025,2.2,4.225,3.9c1.4-1.8,2.883-3.125,4.45-3.975C30.018,5.725,31.7,5.3,33.5,5.3
	c2.967,0,5.459,1.008,7.475,3.025C42.992,10.342,44,12.85,44,15.85c0,1.533-0.275,3.05-0.825,4.55s-1.509,3.175-2.875,5.025
	c-1.366,1.851-3.2,3.95-5.5,6.3c-2.3,2.352-5.216,5.144-8.75,8.375L24,41.95z M24,38c3.367-3.1,6.143-5.758,8.325-7.975
	s3.917-4.158,5.2-5.825s2.184-3.15,2.699-4.45c0.518-1.3,0.774-2.6,0.774-3.9c0-2.2-0.7-4.008-2.101-5.425
	C37.5,9.008,35.7,8.3,33.5,8.3c-1.7,0-3.283,0.525-4.75,1.575S26.1,12.4,25.2,14.3h-2.45c-0.867-1.867-2.033-3.333-3.5-4.4
	c-1.467-1.066-3.05-1.6-4.75-1.6c-2.2,0-4,0.708-5.4,2.125S7,13.65,7,15.85c0,1.3,0.258,2.608,0.775,3.925s1.417,2.817,2.7,4.5
	C11.758,25.959,13.5,27.9,15.7,30.1C17.9,32.3,20.667,34.934,24,38z"/>
</svg>
